<?xml version="1.0" encoding="utf-8"?>
<!-- Generator: Adobe Illustrator 21.0.0, SVG Export Plug-In . SVG Version: 6.00 Build 0)  -->
<svg version="1.0" xmlns="http://www.w3.org/2000/svg" xmlns:xlink="http://www.w3.org/1999/xlink" x="0px" y="0px"
	 viewBox="0 0 200 200" style="enable-background:new 0 0 200 200;" xml:space="preserve">
<g id="Layer_1">
	<polygon id="big" class="st0" fill="#1B1464" points="99.8,1.9 124.1,57.2 184.2,50.6 148.5,99.4 184.2,148.1 124.1,141.6 99.8,196.8 75.4,141.6 
		15.4,148.1 51,99.4 15.4,50.6 75.4,57.2 	"/>
	
	<g id="small6">
		<polygon class="st1" fill="#0071BC" points="4.9,99.9 22.8,92 20.7,72.6 36.4,84.2 52.2,72.6 50.1,92 68,99.9 50.1,107.8 52.2,127.2 36.4,115.7 
			20.7,127.2 22.8,107.8 		"/>
	</g>
	
	<g id="small3">
		<polygon class="st1" fill="#0071BC" points="194.6,98.8 176.8,106.7 178.9,126.1 163.1,114.6 147.3,126.1 149.4,106.7 131.6,98.8 149.4,90.9 
			147.3,71.5 163.1,83.1 178.9,71.5 176.8,90.9 		"/>
	</g>
	
	<g id="small5">
		<polygon class="st2" fill="#29ABE2" points="52.8,181.8 54.9,162.4 37.1,154.5 54.9,146.6 52.8,127.2 68.6,138.7 84.4,127.2 82.2,146.6 
			100.1,154.5 82.2,162.4 84.4,181.8 68.6,170.3 		"/>
	</g>
	
	<g id="small4">
		<polygon class="st3" fill="#00FFFF" points="147.7,181.3 131.9,169.7 116.1,181.3 118.3,161.8 100.4,153.9 118.3,146.1 116.1,126.6 131.9,138.2 
			147.7,126.6 145.6,146.1 163.5,153.9 145.6,161.8 		"/>
	</g>
	
	<g id="small2">
		<polygon class="st2" fill="#29ABE2" points="146.7,16.9 144.6,36.4 162.5,44.3 144.6,52.1 146.7,71.6 131,60 115.2,71.6 117.3,52.1 99.4,44.3 
			117.3,36.4 115.2,16.9 131,28.5 		"/>
	</g>
	
	<g id="small1">
		<polygon class="st3" fill="#00FFFF" points="51.9,17.5 67.6,29 83.4,17.5 81.3,36.9 99.2,44.8 81.3,52.7 83.4,72.1 67.6,60.6 51.9,72.1 54,52.7 
			36.1,44.8 54,36.9 		"/>
	</g>
</g>
</svg>
